<svg height="30" viewBox="0 0 223 30" width="223" xmlns="http://www.w3.org/2000/svg"><g fill="none" fill-rule="evenodd"><rect fill="#ff5e5b" height="30" rx="8" width="223"/><g fill-rule="nonzero"><g transform="translate(24 7)"><path d="m17.417931 0h1.6076166c3.1007764 0 5.6144524 2.51367595 5.6144524 5.61445238v.33001416c0 3.10077643-2.513676 5.61445236-5.6144524 5.61445236h-1.6076166v1.6897954c0 1.4311276-1.1601581 2.5912857-2.5912857 2.5912857h-12.23535959c-1.43112758 0-2.59128571-1.1601581-2.59128571-2.5912857v-11.95307144c0-.71556379.58007907-1.29564286 1.29564286-1.29564286zm0 2.99675676v5.5654054h1.4655732c1.5368443 0 2.7827027-1.24585843 2.7827027-2.7827027s-1.2458584-2.7827027-2.7827027-2.7827027z" fill="#fff"/><path d="m8.36 5.27684576c.40029424-1.17123051 1.34894135-1.75684576 2.8459413-1.75684576 2.2455 0 3.0779646 2.7936503 1.9009337 4.62-.7846873 1.21756646-2.3669789 2.7575665-4.746875 4.62-2.37989606-1.8624335-3.96218772-3.40243354-4.74687498-4.62-1.1770309-1.8263497-.34456631-4.62 1.90093365-4.62 1.49699998 0 2.44564709.58561525 2.84594133 1.75684576z" fill="#ff5e5b"/></g><path d="m66.2 19.14c-.6720034 0-1.2693307-.0839992-1.792-.252s-1.0126644-.4526647-1.47-.854c-.2520013-.2240011-.378-.471332-.378-.742 0-.2146677.0793325-.4036659.238-.567s.3499989-.245.574-.245c.1773342 0 .3359993.0559994.476.168.3733352.3080015.7373316.5319993 1.092.672s.7746642.21 1.26.21c.5226693 0 .9729981-.1166655 1.351-.35s.567-.5226649.567-.868c0-.4200021-.1866648-.7489988-.56-.987s-.9659959-.4176661-1.778-.539c-2.0440102-.2986682-3.066-1.2506586-3.066-2.856 0-.5880029.1539985-1.0989978.462-1.533.3080015-.43400217.7279973-.76533219 1.26-.994s1.1246634-.343 1.778-.343c.5880029 0 1.1409974.08866578 1.659.266s.9496649.41066522 1.295.7c.270668.2146677.406.4619986.406.742 0 .2146677-.0793325.4036659-.238.567s-.3453323.245-.56.245c-.1400007 0-.2659994-.0419996-.378-.126-.2426679-.196001-.5809978-.3756659-1.015-.539s-.8236649-.245-1.169-.245c-.5880029 0-1.0429984.1096656-1.365.329s-.483.5063316-.483.861c0 .4013353.165665.7046656.497.91s.8516631.3733327 1.561.504c.8026707.1400007 1.4443309.3196656 1.925.539s.8423321.5179981 1.085.896.364.8796635.364 1.505c0 .5880029-.165665 1.1036645-.497 1.547s-.7723306.7839988-1.323 1.022-1.1433302.357-1.778.357zm10.626-7.63c.2426679 0 .4433325.0816659.602.245s.238.3663321.238.609v3.556c0 1.008005-.2776639 1.7966638-.833 2.366s-1.3463282.854-2.373.854-1.8153306-.2846638-2.366-.854-.826-1.357995-.826-2.366v-3.556c0-.2426679.0793325-.4456659.238-.609s.3593321-.245.602-.245.4433325.0816659.602.245.238.3663321.238.609v3.556c0 .5693362.1259987.9916653.378 1.267s.6299975.413 1.134.413c.5133359 0 .8959987-.1376653 1.148-.413s.378-.6976638.378-1.267v-3.556c0-.2426679.0793325-.4456659.238-.609s.3593321-.245.602-.245zm6.538-.14c.6440032 0 1.2273307.165665 1.75.497s.9356652.7909971 1.239 1.379c.3033349.5880029.455 1.2553296.455 2.002s-.1493318 1.4163304-.448 2.009-.7069974 1.054665-1.225 1.386-1.0896635.497-1.715.497c-.4480022 0-.8703313-.0909991-1.267-.273s-.7256654-.4036654-.987-.665v2.744c0 .2426679-.0793325.4456658-.238.609s-.3593321.245-.602.245-.4433325-.0793325-.602-.238-.238-.3639987-.238-.616v-8.582c0-.2426679.0793325-.4456659.238-.609s.3593321-.245.602-.245.4433325.0816659.602.245.238.3663321.238.609v.056c.2240011-.2800014.5366647-.524999.938-.735.4013353-.2100011.8213311-.315 1.26-.315zm-.21 6.23c.5973363 0 1.0873314-.2239978 1.47-.672s.574-1.0079966.574-1.68-.1889981-1.2296645-.567-1.673c-.3780019-.4433356-.8703303-.665-1.477-.665s-1.1013314.2216644-1.484.665c-.3826686.4433355-.574 1.0009966-.574 1.673s.1913314 1.2319978.574 1.68.8773303.672 1.484.672zm8.932-6.23c.6440032 0 1.2273307.165665 1.75.497s.9356652.7909971 1.239 1.379c.3033349.5880029.455 1.2553296.455 2.002s-.1493318 1.4163304-.448 2.009-.7069974 1.054665-1.225 1.386-1.0896635.497-1.715.497c-.4480022 0-.8703313-.0909991-1.267-.273s-.7256654-.4036654-.987-.665v2.744c0 .2426679-.0793325.4456658-.238.609s-.3593321.245-.602.245-.4433325-.0793325-.602-.238-.238-.3639987-.238-.616v-8.582c0-.2426679.0793325-.4456659.238-.609s.3593321-.245.602-.245.4433325.0816659.602.245.238.3663321.238.609v.056c.2240011-.2800014.5366647-.524999.938-.735.4013353-.2100011.8213311-.315 1.26-.315zm-.21 6.23c.5973363 0 1.0873314-.2239978 1.47-.672s.574-1.0079966.574-1.68-.1889981-1.2296645-.567-1.673c-.3780019-.4433356-.8703303-.665-1.477-.665s-1.1013314.2216644-1.484.665c-.3826686.4433355-.574 1.0009966-.574 1.673s.1913314 1.2319978.574 1.68.8773303.672 1.484.672zm12.25-2.338c0 .7466704-.167998 1.4163304-.504 2.009s-.795664 1.0523317-1.379 1.379-1.224996.49-1.925.49c-.7093369 0-1.3533304-.1633317-1.932-.49s-1.0359983-.7863304-1.372-1.379-.504-1.2623296-.504-2.009.1679983-1.4163304.504-2.009.7933304-1.054665 1.372-1.386 1.2226631-.497 1.932-.497c.700004 0 1.341664.165665 1.925.497s1.042998.7933304 1.379 1.386.504 1.2623296.504 2.009zm-1.68 0c0-.4573356-.095666-.8656649-.287-1.225s-.447998-.636999-.77-.833-.678998-.294-1.071-.294-.7489984.097999-1.071.294-.5786657.4736649-.77.833-.287.7676644-.287 1.225.0956657.8633316.287 1.218.4479984.629999.77.826.678998.294 1.071.294.748998-.097999 1.071-.294.578666-.4713316.77-.826.287-.7606644.287-1.218zm6.972-3.892c.280001 0 .515666.0793325.707.238s.287.3453323.287.56c0 .2893348-.074666.5063326-.224.651s-.326666.217-.532.217c-.140001 0-.298666-.0326663-.476-.098-.028-.0093334-.091-.0279999-.189-.056s-.202999-.042-.315-.042c-.242668 0-.475999.0746659-.7.224s-.408333.3756651-.553.679-.217.6649979-.217 1.085v3.318c0 .2426679-.079333.4456658-.238.609-.158667.1633341-.359332.245-.602.245s-.443333-.0816659-.602-.245c-.158667-.1633342-.238-.3663321-.238-.609v-5.782c0-.2426679.079333-.4456659.238-.609s.359332-.245.602-.245.443333.0816659.602.245.238.3663321.238.609v.182c.214668-.3826686.522665-.6743323.924-.875s.830664-.301 1.288-.301zm5.796 6.048c.130667 0 .249666.0629994.357.189s.161.2916656.161.497c0 .2520013-.137665.4643325-.413.637s-.585665.259-.931.259c-.57867 0-1.066331-.1236654-1.463-.371s-.595-.7723293-.595-1.575v-3.864h-.644c-.224001 0-.410666-.0746659-.56-.224s-.224-.3359989-.224-.56c0-.2146677.074666-.3943326.224-.539s.335999-.217.56-.217h.644v-.896c0-.2426679.081666-.4456658.245-.609.163334-.16333415.366332-.245.609-.245.233334 0 .429333.08166585.588.245.158667.1633342.238.3663321.238.609v.896h.994c.224001 0 .410666.0746659.56.224s.224.3359989.224.56c0 .2146677-.074666.3943326-.224.539s-.335999.217-.56.217h-.994v3.794c0 .196001.051333.3383329.154.427s.242666.133.42.133c.074667 0 .177333-.0186665.308-.056.112001-.0466669.219333-.07.322-.07zm14.672-6.048c.924005 0 1.563332.2823305 1.918.847s.532 1.3463283.532 2.345v3.584c0 .2426679-.079333.4456658-.238.609-.158667.1633341-.359332.245-.602.245s-.443333-.0816659-.602-.245c-.158667-.1633342-.238-.3663321-.238-.609v-3.584c0-.5133359-.100332-.9169985-.301-1.211s-.552997-.441-1.057-.441c-.522669 0-.930999.1563318-1.225.469s-.441.7069976-.441 1.183v3.584c0 .2426679-.079333.4456658-.238.609-.158667.1633341-.359332.245-.602.245s-.443333-.0816659-.602-.245c-.158667-.1633342-.238-.3663321-.238-.609v-3.584c0-.5133359-.100332-.9169985-.301-1.211s-.552997-.441-1.057-.441c-.522669 0-.930999.1563318-1.225.469s-.441.7069976-.441 1.183v3.584c0 .2426679-.079333.4456658-.238.609-.158667.1633341-.359332.245-.602.245s-.443333-.0816659-.602-.245c-.158667-.1633342-.238-.3663321-.238-.609v-5.782c0-.2426679.079333-.4456659.238-.609s.359332-.245.602-.245.443333.0816659.602.245.238.3663321.238.609v.224c.252001-.3360017.571665-.6229988.959-.861s.818998-.357 1.295-.357c1.176006 0 1.927332.5133282 2.254 1.54.214668-.392002.538998-.7466651.973-1.064s.926331-.476 1.477-.476zm10.99 3.71c-.009333.2240011-.097999.4059993-.266.546s-.363999.21-.588.21h-4.62c.112001.5506694.368665.9823318.77 1.295s.853997.469 1.358.469c.382669 0 .681332-.0349997.896-.105s.384999-.1446663.511-.224.212333-.1329999.259-.161c.168001-.0840004.326666-.126.476-.126.196001 0 .363999.0699993.504.21s.21.3033324.21.49c0 .2520013-.130665.4806656-.392.686-.261335.2146677-.611331.3966659-1.05.546s-.881998.224-1.33.224c-.784004 0-1.467664-.1633317-2.051-.49s-1.033665-.7769971-1.351-1.351-.476-1.2203297-.476-1.939c0-.8026707.167998-1.5073303.504-2.114s.779331-1.0709984 1.33-1.393 1.138664-.483 1.764-.483c.616003 0 1.196997.1679983 1.743.504s.982332.7886638 1.309 1.358.49 1.18533.49 1.848zm-3.542-2.17c-1.082672 0-1.721999.5086616-1.918 1.526h3.668v-.098c-.037334-.392002-.228665-.7279986-.574-1.008s-.737331-.42-1.176-.42zm16.058 2.352c0 .7466704-.167998 1.4163304-.504 2.009s-.795664 1.0523317-1.379 1.379-1.224997.49-1.925.49c-.709337 0-1.35333-.1633317-1.932-.49s-1.035998-.7863304-1.372-1.379-.504-1.2623296-.504-2.009.167998-1.4163304.504-2.009.79333-1.054665 1.372-1.386 1.222663-.497 1.932-.497c.700003 0 1.341664.165665 1.925.497s1.042998.7933304 1.379 1.386.504 1.2623296.504 2.009zm-1.68 0c0-.4573356-.095666-.8656649-.287-1.225s-.447998-.636999-.77-.833-.678998-.294-1.071-.294-.748998.097999-1.071.294-.578666.4736649-.77.833-.287.7676644-.287 1.225.095666.8633316.287 1.218.447998.629999.77.826.678998.294 1.071.294.748998-.097999 1.071-.294.578666-.4713316.77-.826.287-.7606644.287-1.218zm7.084-3.892c.952005 0 1.609998.2823305 1.974.847s.546 1.3463283.546 2.345v3.584c0 .2426679-.079333.4456658-.238.609-.158667.1633341-.359332.245-.602.245s-.443333-.0816659-.602-.245c-.158667-.1633342-.238-.3663321-.238-.609v-3.584c0-.5133359-.107332-.9169985-.322-1.211s-.583331-.441-1.106-.441c-.541336 0-.965998.1563318-1.274.469s-.462.7069976-.462 1.183v3.584c0 .2426679-.079333.4456658-.238.609-.158667.1633341-.359332.245-.602.245s-.443333-.0816659-.602-.245c-.158667-.1633342-.238-.3663321-.238-.609v-5.782c0-.2426679.079333-.4456659.238-.609s.359332-.245.602-.245.443333.0816659.602.245.238.3663321.238.609v.238c.252001-.3360017.580998-.6253321.987-.868s.851664-.364 1.337-.364zm15.904 6.174c.056.074667.102666.1656661.14.273s.056.2076662.056.301c0 .2520013-.095666.4619992-.287.63s-.412999.252-.665.252c-.121334 0-.237999-.0279997-.35-.084s-.205333-.1353328-.28-.238l-3.038-4.004-1.33 1.274v2.198c0 .2520013-.081666.4573325-.245.616s-.375665.238-.637.238c-.252001 0-.459666-.0816659-.623-.245-.163334-.1633342-.245-.3663321-.245-.609v-8.092c0-.24266788.083999-.44566585.252-.609s.382665-.245.644-.245c.252001 0 .457333.07933254.616.238s.238.36399874.238.616v3.808l4.48-4.41c.214668-.21466774.443332-.322.686-.322.214668 0 .396666.08866578.546.266s.224.36399902.224.56c0 .196001-.083999.3779992-.252.546l-3.052 2.912zm8.722-2.282c0 .7466704-.167998 1.4163304-.504 2.009s-.795664 1.0523317-1.379 1.379-1.224996.49-1.925.49c-.709337 0-1.35333-.1633317-1.932-.49s-1.035998-.7863304-1.372-1.379-.504-1.2623296-.504-2.009.167998-1.4163304.504-2.009.79333-1.054665 1.372-1.386 1.222663-.497 1.932-.497c.700004 0 1.341664.165665 1.925.497s1.042998.7933304 1.379 1.386.504 1.2623296.504 2.009zm-1.68 0c0-.4573356-.095666-.8656649-.287-1.225s-.447998-.636999-.77-.833-.678998-.294-1.071-.294-.748998.097999-1.071.294-.578666.4736649-.77.833-.287.7676644-.287 1.225.095666.8633316.287 1.218.447998.629999.77.826.678998.294 1.071.294.748998-.097999 1.071-.294.578666-.4713316.77-.826.287-.7606644.287-1.218zm3.724.28c-.242668 0-.445666-.0793325-.609-.238s-.245-.3593321-.245-.602c0-.2333345.081666-.4293325.245-.588s.366332-.238.609-.238h2.436c.242668 0 .445666.0816658.609.245.163334.1633341.245.3663321.245.609 0 .2333345-.081666.4269992-.245.581s-.366332.231-.609.231zm8.498-5.418c-.317335 0-.541333.0909991-.672.273s-.196.3803323-.196.595v.658h1.274c.224001 0 .410666.0723326.56.217s.224.3289989.224.553-.074666.4083326-.224.553-.335999.217-.56.217h-1.274v4.956c0 .2426679-.079333.4456658-.238.609-.158667.1633341-.359332.245-.602.245s-.443333-.0816659-.602-.245c-.158667-.1633342-.238-.3663321-.238-.609v-4.956h-.756c-.224001 0-.410666-.0723326-.56-.217s-.224-.3289989-.224-.553.074666-.4083326.224-.553.335999-.217.56-.217h.756v-.644c0-.7000035.240331-1.26933114.721-1.708s1.173662-.658 2.079-.658c.345335 0 .646332.0699993.903.21s.385.35466522.385.644c0 .22400112-.065333.4059993-.196.546s-.289332.21-.476.21c-.046667 0-.095666-.0046666-.147-.014s-.105-.0186666-.161-.028c-.224001-.0560003-.410666-.084-.56-.084zm3.822 8.022c0 .2426679-.079333.4456658-.238.609-.158667.1633341-.359332.245-.602.245s-.443333-.0816659-.602-.245c-.158667-.1633342-.238-.3663321-.238-.609v-5.782c0-.2426679.079333-.4456659.238-.609s.359332-.245.602-.245.443333.0816659.602.245.238.3663321.238.609zm-.854-7.546c-.317335 0-.541333-.0513328-.672-.154s-.196-.2846654-.196-.546v-.266c0-.26133464.069999-.44333282.21-.546s.363998-.154.672-.154c.326668 0 .555333.05133282.686.154s.196.28466536.196.546v.266c0 .270668-.067666.4549995-.203.553s-.366332.147-.693.147z" fill="#fff"/></g></g></svg>