<?xml version="1.0" standalone="no"?>
<!DOCTYPE svg PUBLIC "-//W3C//DTD SVG 20010904//EN"
 "http://www.w3.org/TR/2001/REC-SVG-20010904/DTD/svg10.dtd">
<svg version="1.0" xmlns="http://www.w3.org/2000/svg"
 width="512.000000pt" height="512.000000pt" viewBox="0 0 512.000000 512.000000"
 preserveAspectRatio="xMidYMid meet">
<metadata>
Created by potrace 1.11, written by Peter Selinger 2001-2013
</metadata>
<g transform="translate(0.000000,512.000000) scale(0.100000,-0.100000)"
fill="#000000" stroke="none">
<path d="M647 4446 c-55 -20 -77 -44 -77 -82 0 -46 54 -89 145 -115 224 -65
266 -81 339 -129 93 -63 152 -127 278 -305 154 -215 568 -848 568 -867 0 -3
-34 -11 -75 -17 -150 -24 -275 -114 -333 -239 -24 -50 -27 -69 -27 -157 0 -89
3 -106 28 -157 42 -86 107 -152 190 -193 109 -53 204 -62 331 -30 26 7 16 -8
-84 -136 -286 -364 -649 -791 -751 -883 -95 -86 -207 -164 -310 -216 -92 -46
-134 -61 -334 -119 -87 -26 -132 -53 -146 -88 -38 -100 61 -123 411 -98 185
14 299 16 642 10 384 -6 419 -6 453 11 73 34 72 97 -2 144 -25 16 -74 39 -108
50 -88 29 -165 78 -187 120 -72 136 79 414 546 1009 171 217 178 224 209 210
40 -18 266 -370 611 -951 150 -253 152 -259 129 -306 -18 -38 -56 -58 -221
-115 -73 -25 -112 -61 -112 -102 0 -44 28 -70 89 -85 35 -8 90 -7 236 5 237
19 489 19 900 0 527 -24 618 -20 665 30 49 53 -6 119 -127 154 -237 68 -349
120 -470 216 -105 83 -208 207 -373 451 -104 153 -127 194 -112 194 11 0 57
18 102 41 146 73 230 182 238 307 5 79 -15 135 -66 185 -55 54 -97 64 -293 72
-116 5 -183 12 -201 21 -36 19 -46 58 -22 85 16 18 27 20 74 15 64 -7 169 13
228 43 56 28 127 111 142 165 7 25 11 78 8 120 l-3 75 64 3 c62 3 66 5 84 36
30 51 12 62 -109 68 -54 3 -137 14 -184 26 -123 30 -262 23 -344 -17 -125 -62
-190 -193 -156 -316 15 -52 59 -114 108 -150 23 -17 39 -35 36 -40 -3 -5 -35
-30 -72 -54 l-66 -45 -50 78 c-83 131 -206 345 -201 351 3 2 11 -1 17 -7 27
-27 55 -13 102 50 25 34 46 71 46 83 0 32 -26 62 -65 75 l-35 12 22 31 c97
137 669 820 778 927 173 173 325 256 622 341 77 22 157 51 177 64 45 28 68 73
52 103 -22 41 -66 46 -366 36 -154 -5 -451 -7 -660 -5 -327 3 -386 1 -418 -12
-109 -46 -44 -149 122 -192 161 -41 224 -99 207 -189 -11 -56 -223 -368 -494
-726 -193 -254 -251 -322 -276 -318 -25 4 -84 88 -265 378 -151 241 -278 457
-349 593 -79 150 -71 207 34 246 86 33 129 58 158 91 35 42 35 84 -1 107 -25
17 -67 18 -533 19 -278 0 -593 6 -700 12 -253 15 -366 14 -413 -2z m2867
-1596 c48 -42 71 -108 71 -200 0 -85 -24 -161 -58 -185 -89 -62 -189 56 -188
224 0 160 86 238 175 161z m-1584 -5 c118 -60 171 -309 109 -510 -20 -65 -70
-124 -107 -126 -98 -6 -181 70 -219 201 -24 84 -21 259 6 331 42 111 121 149
211 104z m1738 -808 c68 -37 91 -121 52 -197 -32 -62 -103 -100 -190 -100 -34
0 -38 4 -123 135 -48 74 -90 142 -93 150 -11 26 37 35 181 32 112 -2 147 -6
173 -20z"/>
<path d="M1130 2402 c-19 -9 -45 -33 -58 -52 -20 -29 -23 -44 -20 -88 5 -62
40 -106 99 -124 32 -9 44 -8 81 10 52 26 78 66 78 122 0 63 -26 109 -74 131
-51 23 -62 23 -106 1z"/>
</g>
</svg>
